<?xml version="1.0" standalone="no"?>
<!DOCTYPE svg PUBLIC "-//W3C//DTD SVG 20010904//EN"
 "http://www.w3.org/TR/2001/REC-SVG-20010904/DTD/svg10.dtd">
<svg version="1.0" xmlns="http://www.w3.org/2000/svg"
 width="1890.000000pt" height="1890.000000pt" viewBox="0 0 1890.000000 1890.000000"
 preserveAspectRatio="xMidYMid meet">
<metadata>
Created by potrace 1.11, written by Peter Selinger 2001-2013
</metadata>
<g transform="translate(0.000000,1890.000000) scale(0.100000,-0.100000)"
fill="#000000" stroke="none">
<path d="M9050 16349 c-1193 -71 -2323 -430 -3322 -1055 -134 -83 -385 -254
-448 -304 -25 -20 -25 -20 551 -20 l576 0 81 -187 c45 -104 122 -285 173 -403
50 -118 175 -413 279 -655 103 -242 259 -606 345 -810 87 -203 211 -496 277
-650 250 -586 292 -684 501 -1175 118 -278 227 -534 243 -570 43 -102 87 -206
136 -320 25 -58 110 -256 188 -440 78 -184 182 -427 230 -540 48 -113 199
-466 335 -785 136 -319 263 -617 282 -663 20 -45 37 -81 38 -80 2 2 40 93 85
203 45 110 125 304 177 430 52 127 114 277 138 335 142 347 568 1382 585 1420
11 25 137 331 280 680 144 349 276 671 294 715 32 76 137 329 406 985 67 162
136 331 155 375 18 44 54 132 80 195 26 63 84 205 130 315 45 110 128 310 183
445 56 135 114 277 130 315 16 39 57 140 92 225 34 85 67 159 71 164 12 14
142 -77 214 -149 116 -116 172 -226 195 -385 l12 -85 -35 -80 c-19 -44 -58
-136 -87 -205 -29 -69 -87 -208 -130 -310 -43 -102 -115 -273 -160 -380 -45
-107 -110 -262 -145 -345 -35 -82 -92 -220 -128 -305 -36 -85 -156 -371 -267
-635 -235 -558 -387 -919 -475 -1130 -206 -493 -281 -671 -322 -765 -25 -58
-66 -154 -90 -215 -25 -60 -53 -128 -63 -150 -10 -22 -82 -193 -160 -380 -193
-459 -337 -804 -607 -1445 -25 -58 -56 -133 -70 -167 l-26 -62 -51 -6 c-116
-16 -285 -76 -393 -139 -251 -147 -445 -386 -533 -657 -53 -161 -65 -244 -65
-464 0 -289 40 -487 146 -724 l30 -68 -106 -254 c-59 -140 -147 -351 -196
-469 -50 -118 -96 -228 -103 -245 -15 -32 -90 -209 -124 -290 l-21 -50 -97 0
-97 0 -55 125 c-30 69 -92 213 -137 320 -46 107 -196 458 -335 780 -139 322
-326 758 -417 970 -91 212 -173 403 -183 425 -10 22 -58 135 -108 250 -284
661 -745 1734 -757 1760 -12 27 -190 440 -400 930 -40 94 -184 429 -320 745
-136 316 -261 609 -280 650 -18 41 -64 149 -103 240 -82 192 -198 462 -217
505 -19 43 -222 514 -320 745 -46 107 -150 350 -232 540 -82 190 -207 481
-278 647 -72 167 -134 301 -140 299 -16 -5 -14 -8396 3 -8558 15 -153 40 -244
96 -363 38 -82 56 -105 188 -242 202 -208 267 -267 335 -301 205 -102 560
-172 881 -172 l92 0 0 -150 0 -150 -217 0 -218 -1 30 -25 c17 -13 96 -71 178
-127 1219 -844 2662 -1277 4142 -1244 1399 32 2713 456 3852 1244 82 56 162
114 178 127 l30 25 -70 1 -70 1 90 38 c318 135 630 332 900 570 129 113 332
344 409 465 18 28 47 73 64 100 77 121 189 367 226 497 8 30 25 88 36 129 87
305 152 784 180 1320 6 123 10 1291 10 3170 0 1679 5 3084 10 3225 16 427 36
559 110 710 94 192 187 287 365 375 210 104 362 131 768 137 l307 5 0 149 0
149 -1671 0 -1670 0 -102 73 c-1204 865 -2645 1324 -4132 1315 -126 0 -291 -5
-365 -9z"/>
<path d="M3356 12818 c-1044 -1829 -1172 -4110 -340 -6055 118 -278 297 -631
402 -798 l32 -50 0 3528 c0 1940 -2 3527 -3 3527 -2 0 -43 -69 -91 -152z"/>
<path d="M15450 9445 l0 -3530 32 50 c106 168 283 520 401 795 533 1249 682
2655 421 3995 -118 604 -311 1175 -584 1730 -79 160 -218 416 -256 470 -12 16
-14 -513 -14 -3510z"/>
</g>
</svg>
